<?xml version="1.0" encoding="utf-8"?>
<!-- Generator: Adobe Illustrator 21.0.0, SVG Export Plug-In . SVG Version: 6.00 Build 0)  -->
<svg version="1.1" id="Calque_1" xmlns="http://www.w3.org/2000/svg" xmlns:xlink="http://www.w3.org/1999/xlink" x="0px" y="0px"
	 viewBox="0 0 283.5 283.5" style="enable-background:new 0 0 283.5 283.5;" xml:space="preserve">
<style type="text/css">
	.st0{fill:#3B444F;}
</style>
<g>
	<path class="st0" d="M55.9,65.9c0,0-0.1,0.2-0.1,0.4c-0.1,0.2-0.3,0.5-0.5,0.7c-0.3,0.3-0.6,0.5-1.1,0.7c-0.5,0.2-1.1,0.3-1.9,0.3
		c-1.1,0-1.9-0.1-2.5-0.2s-1-0.3-1.2-0.5c-0.2-0.2-0.3-0.5-0.3-0.7c0-0.3,0.1-0.5,0.1-0.8c0.8-2.8,2.2-5.3,4.2-7.3
		c2-2,4.5-3.7,7.4-5c2.9-1.3,6.3-2.3,10.1-2.9s7.8-0.9,12.2-0.9c2.9,0,5.9,0.1,9,0.4c3.1,0.3,6.3,0.6,9.6,0.9
		c0.9,0.3,1.5,0.6,1.7,1.1c0.2,0.5,0.3,1,0.1,1.6c-0.1,0.4-0.3,0.7-0.5,1.1c-0.2,0.4-0.5,0.8-0.8,1.1c-0.3,0.3-0.7,0.6-1.1,0.8
		c-0.4,0.2-0.8,0.3-1.3,0.3c0,0-0.1,0-0.2,0c-0.1,0-0.2,0-0.3,0c-1.2-0.1-2.6-0.2-4-0.3c-1.4-0.1-2.9-0.2-4.5-0.4
		c-1.6-0.1-3.2-0.2-4.9-0.3c-1.7,0-3.4-0.1-5.1-0.1c-0.5,0-1.1,0-1.9,0.1c-0.7,0-1.4,0.1-2.1,0.2c-0.8,0.1-1.6,0.1-2.5,0.2
		c0,0.2-0.1,0.4-0.2,0.6c-0.1,0.2-0.3,0.6-0.5,1c-0.2,0.5-0.5,1.1-0.9,1.9s-0.8,1.7-1.2,2.8c-0.4,1.1-1,2.5-1.7,4.2
		c-0.7,1.7-1.5,3.8-2.4,6.3h15.8c0.5,0,0.8,0.1,1,0.3s0.3,0.4,0.4,0.6s0,0.5,0,0.8c-0.1,0.3-0.1,0.6-0.2,0.8
		c-0.2,0.9-0.6,1.5-1.2,1.9c-0.5,0.4-1,0.6-1.4,0.6c-0.1,0-0.6,0-1.3,0c-0.7,0-1.7,0.1-2.7,0.1c-1.1,0-2.3,0.1-3.5,0.1
		c-1.3,0-2.5,0.1-3.7,0.1c-1.2,0-2.3,0.1-3.2,0.1c-1,0-1.6,0-2.1,0c-1.1,2.3-2.1,4.5-3.1,6.6c-1,2.1-2.1,4.1-3.3,6
		c-1.2,1.9-2.4,3.5-3.8,5.1c-1.3,1.5-2.8,2.8-4.3,3.9c-1.5,1.1-3.2,1.9-5,2.5c-1.8,0.6-3.7,0.9-5.8,0.9c-0.4,0-0.9,0-1.5-0.1
		s-1.2-0.2-1.8-0.3c-0.6-0.1-1.2-0.3-1.8-0.5c-0.6-0.2-1.1-0.5-1.5-0.8c-0.4-0.3-0.7-0.7-0.9-1.1c-0.2-0.4-0.2-0.9-0.1-1.5
		c0.1-0.3,0.3-0.7,0.5-1.1c0.3-0.5,0.6-0.9,1-1.4c0.4-0.4,0.8-0.8,1.3-1.1c0.5-0.3,1-0.5,1.6-0.5c0.6,0,1.3,0.1,1.9,0.3
		c0.6,0.2,1.3,0.4,2,0.7c0.7,0.3,1.4,0.5,2.1,0.7c0.7,0.2,1.5,0.3,2.3,0.3c0.6,0,1.3-0.3,2.1-0.8c0.7-0.5,1.5-1.2,2.3-2.1
		c0.8-0.9,1.6-1.9,2.4-3.1c0.8-1.2,1.6-2.5,2.5-3.8c0.8-1.4,1.6-2.8,2.4-4.3c0.8-1.5,1.5-3,2.3-4.5l-3.5,0c-0.3,0-0.7,0-1.2-0.1
		c-0.5-0.1-0.9-0.2-1.3-0.4c-0.4-0.2-0.7-0.4-0.9-0.7c-0.2-0.3-0.3-0.6-0.2-1.1c0.1-0.3,0.3-0.6,0.5-0.9s0.6-0.5,1-0.6
		c1.1-0.2,2.1-0.4,3-0.6s1.6-0.3,2.3-0.4s1.2-0.2,1.7-0.3c0.5-0.1,1-0.2,1.4-0.2c1.1-2.2,2-4.1,2.7-5.6c0.7-1.5,1.3-2.9,1.9-4.1
		c0.5-1.2,1.1-2.4,1.5-3.4c0.5-1.1,1-2.2,1.6-3.5c-1.8,0.5-3.4,1-4.8,1.7c-1.4,0.7-2.6,1.4-3.7,2.1c-1,0.8-1.8,1.5-2.5,2.4
		C56.5,64.3,56.1,65.1,55.9,65.9z"/>
	<path class="st0" d="M94.8,78.5c0.2,1.1,0.3,2.3,0.2,3.5c-0.1,1.2-0.3,2.6-0.8,4.2c-0.3,1.1-0.8,2.3-1.3,3.4
		c-0.6,1.1-1.2,2.2-2,3.3c-0.8,1.1-1.6,2.1-2.6,3c-0.9,0.9-1.9,1.7-3,2.4c-1.1,0.7-2.2,1.2-3.3,1.6c-1.1,0.4-2.3,0.6-3.5,0.6
		c-1.7,0-3-0.4-4-1.1c-1-0.7-1.7-1.7-2.1-2.9c-0.4-1.2-0.6-2.5-0.5-4s0.3-3,0.8-4.5c0.7-2.5,1.7-4.7,2.8-6.5
		c1.1-1.8,2.5-3.4,4.1-4.7c1.6-1.3,3.3-2.4,5.2-3.2c1.9-0.8,3.9-1.2,6-1.2c1.8,0,3.4,0.3,4.8,0.8c1.4,0.6,2.7,1.3,3.8,2.3
		c1.1,0.9,2.1,2.1,2.8,3.6s1.5,2.8,2.2,4.1l-1.7,4c-0.3-0.7-0.8-1.4-1.4-2.2c-0.6-0.8-1.3-1.7-2-2.7c-0.7-1-1.4-1.8-2.2-2.5
		c-0.8-0.7-1.4-1.2-2-1.7L94.8,78.5z M81.3,95c0.6,0,1.4-0.3,2.2-1c0.8-0.7,1.6-1.5,2.3-2.5c0.7-1,1.5-2.2,2.1-3.6
		c0.7-1.4,1.2-2.7,1.5-3.8c0.3-0.9,0.4-1.7,0.5-2.4c0.1-0.8,0.1-1.4,0-2c-0.1-0.6-0.3-1-0.7-1.3c-0.3-0.3-0.8-0.5-1.4-0.5
		c-0.8,0-1.6,0.3-2.5,1c-0.9,0.7-1.8,1.5-2.6,2.6c-0.8,1-1.6,2.2-2.2,3.4c-0.7,1.3-1.2,2.7-1.7,4.3c-0.2,0.8-0.4,1.6-0.4,2.3
		c0,0.7,0,1.3,0.2,1.8c0.2,0.5,0.5,0.9,0.9,1.3C79.9,94.8,80.5,95,81.3,95z"/>
	<path class="st0" d="M119.4,78.5c0.2,1.1,0.3,2.3,0.2,3.5c-0.1,1.2-0.3,2.6-0.8,4.2c-0.3,1.1-0.8,2.3-1.3,3.4
		c-0.6,1.1-1.2,2.2-2,3.3c-0.8,1.1-1.6,2.1-2.6,3c-0.9,0.9-1.9,1.7-3,2.4c-1.1,0.7-2.2,1.2-3.3,1.6c-1.1,0.4-2.3,0.6-3.5,0.6
		c-1.7,0-3-0.4-4-1.1c-1-0.7-1.7-1.7-2.1-2.9c-0.4-1.2-0.6-2.5-0.5-4s0.3-3,0.8-4.5c0.7-2.5,1.7-4.7,2.8-6.5
		c1.1-1.8,2.5-3.4,4.1-4.7c1.6-1.3,3.3-2.4,5.2-3.2c1.9-0.8,3.9-1.2,6-1.2c1.8,0,3.4,0.3,4.8,0.8c1.4,0.6,2.7,1.3,3.8,2.3
		c1.1,0.9,2.1,2.1,2.8,3.6s1.5,2.8,2.2,4.1l-1.7,4c-0.3-0.7-0.8-1.4-1.4-2.2c-0.6-0.8-1.3-1.7-2-2.7c-0.7-1-1.4-1.8-2.2-2.5
		c-0.8-0.7-1.4-1.2-2-1.7L119.4,78.5z M105.9,95c0.6,0,1.4-0.3,2.2-1c0.8-0.7,1.6-1.5,2.3-2.5c0.7-1,1.5-2.2,2.1-3.6
		c0.7-1.4,1.2-2.7,1.5-3.8c0.3-0.9,0.4-1.7,0.5-2.4c0.1-0.8,0.1-1.4,0-2c-0.1-0.6-0.3-1-0.7-1.3c-0.3-0.3-0.8-0.5-1.4-0.5
		c-0.8,0-1.6,0.3-2.5,1c-0.9,0.7-1.8,1.5-2.6,2.6c-0.8,1-1.6,2.2-2.2,3.4c-0.7,1.3-1.2,2.7-1.7,4.3c-0.2,0.8-0.4,1.6-0.4,2.3
		c0,0.7,0,1.3,0.2,1.8c0.2,0.5,0.5,0.9,0.9,1.3C104.5,94.8,105.1,95,105.9,95z"/>
	<path class="st0" d="M154.2,94.5c-1.7,1.1-3.3,2.1-4.8,3c-0.7,0.4-1.3,0.7-2,1.1c-0.7,0.4-1.4,0.7-2.1,0.9
		c-0.7,0.3-1.3,0.5-1.9,0.7c-0.6,0.2-1.1,0.3-1.6,0.3c-0.3,0-0.7-0.1-1.2-0.2c-0.5-0.1-1-0.4-1.5-0.7c-0.5-0.4-1-0.9-1.4-1.6
		c-0.4-0.7-0.7-1.6-0.8-2.8c-0.9,0.7-1.9,1.4-2.8,2.1c-1,0.7-2,1.2-3,1.7c-1,0.5-2,0.9-2.9,1.2c-1,0.3-1.9,0.4-2.7,0.4
		c-1.2,0-2.2-0.3-3-0.8c-0.8-0.5-1.3-1.2-1.7-2.1c-0.4-0.9-0.5-1.8-0.5-2.9s0.2-2.2,0.5-3.4c0.4-1.2,0.9-2.5,1.5-3.8
		c0.7-1.3,1.5-2.5,2.4-3.7c0.9-1.2,2-2.4,3.1-3.7c1.1-1.3,2.4-2.5,3.9-3.5c1.5-1.1,3-1.9,4.4-2.4c1.4-0.5,2.9-0.9,4.4-1
		c0.8-2.5,1.7-4.6,2.7-6.5c1-1.9,2.1-3.9,3.3-6.1c1.2-2.2,2.4-4.2,3.8-6s2.8-3.4,4.2-4.7s2.8-2.4,4.1-3.1c1.4-0.8,2.7-1.1,3.9-1.1
		c0.9,0,1.6,0.2,2.1,0.7c0.5,0.5,0.8,1.1,1,1.9c0.2,0.8,0.2,1.7,0.1,2.7c-0.1,1-0.3,2.1-0.6,3.2c-0.2,0.7-0.4,1.4-0.6,2.1
		c-0.8,2.7-2,5.3-3.5,7.6c-1.5,2.4-2.9,4.7-4.3,7c-1.4,2.3-3,4.6-4.7,6.8c-2.6,3.4-4.4,5.8-5.2,7c-0.2,0.3-0.4,0.6-0.6,1
		c-0.2,0.4-0.4,0.8-0.6,1.3c-0.2,0.5-0.4,0.9-0.6,1.4c-0.2,0.5-0.4,0.9-0.5,1.4c-0.2,0.6-0.3,1.1-0.4,1.6c-0.1,0.5-0.1,0.9-0.1,1.3
		c0,0.4,0.1,0.7,0.3,0.9c0.2,0.2,0.5,0.3,0.8,0.3c0.4,0,0.8-0.1,1.2-0.2c0.5-0.1,1-0.3,1.5-0.6c0.5-0.2,1.1-0.5,1.7-0.8
		c0.6-0.3,1.1-0.6,1.7-1c1.3-0.8,2.6-1.6,4-2.6L154.2,94.5z M139.3,77.7c-1.4,0.6-2.8,1.4-4,2.4c-1.3,1-2.5,2.3-3.6,4
		c-1.1,1.6-2,3.1-2.7,4.3c-0.7,1.2-1.2,2.3-1.4,3.2c-0.1,0.3-0.1,0.6-0.1,0.9c0,0.3,0.1,0.6,0.2,0.8c0.2,0.2,0.4,0.4,0.8,0.6
		c0.4,0.1,0.9,0.2,1.6,0.2c0.3,0,0.7-0.1,1.1-0.2c0.4-0.2,0.8-0.4,1.1-0.6s0.7-0.5,1.1-0.8c0.4-0.3,0.7-0.6,1-1
		c0.8-0.8,1.5-1.7,2.2-2.6c0-0.3,0.1-0.7,0.2-1.3c0.1-0.6,0.4-1.5,0.7-2.7c0.3-1.2,0.6-2.2,0.8-2.9s0.4-1.5,0.6-2.1
		c0.2-0.6,0.3-1.2,0.4-1.6C139.2,77.9,139.3,77.7,139.3,77.7z M158.3,58.2c0.5-1.3,0.9-2.4,1.1-3.2c0.3-1,0.4-1.7,0.3-2.1
		c-0.1-0.4-0.3-0.6-0.6-0.6c-0.6,0-1.3,0.4-2,1.2c-0.7,0.8-1.4,1.8-2.1,3c-0.7,1.2-1.4,2.5-2.1,4c-0.8,1.4-1.4,2.8-2,4.2
		c-0.6,1.4-1,2.6-1.5,3.7c-0.4,1.1-0.7,1.9-0.9,2.3c-0.4,0.9-0.7,1.9-1,2.7s-0.6,1.7-0.8,2.4c-0.2,0.7-0.4,1.4-0.6,1.9
		c-0.2,0.5-0.3,1-0.4,1.2l-0.1,0.3c1.8-2.5,3.5-5.1,5.1-7.6c0.7-1.1,1.4-2.2,2.1-3.4c0.7-1.2,1.4-2.3,2.1-3.5
		c0.7-1.1,1.3-2.3,1.9-3.4C157.4,60.3,157.9,59.2,158.3,58.2z"/>
	<path class="st0" d="M160.5,100.5c-1.8,0-3.2-0.3-4.4-1s-2-1.5-2.6-2.7c-0.6-1.1-0.9-2.4-0.9-3.9c0-1.5,0.2-3,0.7-4.6
		c0.3-1.1,0.9-2.3,1.7-3.8c0.8-1.5,1.6-2.7,2.3-3.9c0.7-1.1,1.6-2.2,2.5-3.2s1.9-1.9,3-2.7c1.1-0.8,2.2-1.4,3.4-1.9
		c1.2-0.5,2.5-0.7,3.8-0.7c1.1,0,2,0.2,2.8,0.5c0.8,0.3,1.5,0.8,2,1.4s0.8,1.4,0.9,2.2c0.1,0.9,0,1.9-0.3,2.9
		c-0.3,1.2-1.1,2.4-2.3,3.9c-1.2,1.4-2.4,2.7-3.8,3.7c-1.3,1-2.8,1.9-4.5,2.7c-1.6,0.8-3.4,1.4-5.2,1.9c0.1,0.5,0.3,0.9,0.5,1.3
		c0.2,0.3,0.4,0.6,0.6,0.8c0.2,0.2,0.5,0.3,0.8,0.4c0.3,0.1,0.6,0.1,1,0.1c1.1,0,2.4-0.2,3.8-0.7c1.4-0.4,2.8-1,4.2-1.7
		c1.4-0.7,2.7-1.4,4-2.2c1.3-0.8,2.4-1.5,3.4-2.2l2.6,3.7c-2.2,1.8-4.4,3.4-6.7,4.7c-1,0.6-2,1.2-3.1,1.7c-1.1,0.6-2.2,1.1-3.4,1.5
		c-1.2,0.4-2.3,0.8-3.5,1.1C162.8,100.3,161.6,100.5,160.5,100.5z M160.6,86.9c0.7,0,1.5-0.2,2.4-0.5c0.9-0.3,1.8-0.8,2.6-1.3
		c0.9-0.5,1.7-1.3,2.7-2.2s1.5-1.7,1.7-2.3c0.2-0.8,0.3-1.5,0.1-2.1c-0.2-0.5-0.5-0.8-0.9-0.8c-0.8,0-1.6,0.1-2.2,0.4
		c-0.7,0.3-1.3,0.7-1.8,1.2c-0.5,0.5-1,1-1.4,1.6c-0.4,0.6-0.9,1.4-1.5,2.2c-0.6,0.9-1,1.6-1.2,2.2C160.8,86,160.7,86.5,160.6,86.9z
		 M171.8,65.5c0.2-0.2,0.5-0.6,0.8-1.1c0.4-0.5,0.8-1.1,1.2-1.7c0.5-0.6,1-1.3,1.5-2.1s1.1-1.5,1.6-2.2c1.2-1.7,2.6-3.6,4-5.5
		c0.4-0.6,0.9-1.1,1.5-1.4c0.6-0.3,1.2-0.4,1.7-0.4c0.5,0,1,0.1,1.4,0.3c0.4,0.2,0.8,0.5,1.1,0.8s0.5,0.8,0.6,1.2
		c0.1,0.5,0.1,1-0.1,1.6c-0.3,0.9-0.9,1.8-1.8,2.8c-0.5,0.5-1.1,1-1.7,1.6c-0.6,0.6-1.3,1.2-2,1.9c-0.7,0.7-1.4,1.3-2.1,2
		c-0.7,0.6-1.4,1.3-2,1.8c-0.6,0.6-1.2,1.1-1.8,1.6s-0.9,0.9-1.3,1.1c-0.4,0.4-0.8,0.7-1.2,0.8c-0.4,0.2-0.7,0.2-1,0.2
		c-0.5,0-0.8-0.2-1-0.5c-0.2-0.4-0.3-0.8-0.1-1.4c0.1-0.2,0.1-0.4,0.3-0.7C171.5,66,171.6,65.8,171.8,65.5z"/>
	<path class="st0" d="M178.7,100.5c-1,0-1.8-0.4-2.5-1.3c-0.6-0.9-1.1-2.1-1.3-3.6c-0.2-1.5-0.2-3.2,0-5.2c0.2-2,0.6-4,1.2-6.2
		c0.5-1.9,1.5-4.4,3-7.5c1.4-3.1,2.2-4.7,2.2-4.7c0,0,0.9-1.6,2.6-4.7c1.7-3.1,3.3-5.6,4.6-7.5c1.4-1.9,2.8-3.6,4.2-5.3
		c1.4-1.6,2.9-3.1,4.3-4.3c1.4-1.2,2.8-2.2,4.2-2.9c1.4-0.7,2.7-1,3.9-1c0.9,0,1.6,0.2,2,0.5c0.5,0.3,0.8,0.8,1,1.3
		c0.2,0.6,0.2,1.2,0.2,1.9s-0.2,1.4-0.4,2.1c-0.5,1.8-1.3,3.6-2.2,5.5c-1,1.9-2.1,3.7-3.3,5.6c-1.3,1.9-2.6,3.8-4.1,5.7
		c-1.5,1.9-3,3.8-4.6,5.6c-1.6,1.9-3.1,3.7-4.7,5.5c-1.6,1.8-3,3.6-4.4,5.3c-0.2,0.2-0.3,0.4-0.5,0.7c-0.2,0.3-0.4,0.6-0.6,1
		c-0.2,0.4-0.4,0.7-0.6,1.1c-0.2,0.4-0.4,0.8-0.6,1.2l-0.1,0.4c-0.1,0.5-0.2,1-0.3,1.5s0,0.9,0,1.3c0,0.4,0.1,0.7,0.2,0.9
		c0.1,0.2,0.2,0.3,0.4,0.3c0.4,0,0.8-0.1,1.3-0.2c0.5-0.2,1.1-0.4,1.7-0.6s1.2-0.6,1.9-0.9c0.7-0.3,1.3-0.7,1.9-1
		c1.5-0.8,3-1.7,4.7-2.8l0.8,6c-2.1,1.2-4.1,2.2-6.1,3.1c-0.9,0.4-1.7,0.8-2.6,1.1c-0.9,0.4-1.8,0.7-2.7,1c-0.9,0.3-1.7,0.5-2.5,0.7
		C180.1,100.4,179.4,100.5,178.7,100.5z M185.3,77.9c1.3-1.5,2.7-3.3,4.2-5.2c1.5-1.9,3-3.9,4.4-5.9c1.4-2,2.8-4.1,4-6.1
		c1.2-2,2.2-3.9,2.8-5.7c0.2-0.6,0.3-1,0.4-1.4c0.1-0.4,0.1-0.6-0.1-0.6c-0.5,0-1.2,0.4-2,1.1c-0.8,0.7-1.7,1.7-2.7,2.9
		c-1,1.2-2.3,3.2-3.9,6c-1.6,2.8-2.5,4.2-2.5,4.2c0,0-0.6,1.3-1.9,3.9C186.9,73.7,185.9,75.9,185.3,77.9z"/>
	<path class="st0" d="M206.8,94.4c-0.9,0.6-1.9,1.3-3.1,2c-1.2,0.7-2.5,1.4-3.9,2c-1.4,0.6-2.7,1.1-4,1.5c-1.3,0.4-2.6,0.6-3.7,0.6
		c-1,0-1.8-0.1-2.4-0.4c-0.6-0.3-1-0.7-1.3-1.2c-0.3-0.5-0.4-1.1-0.4-1.8c0-0.7,0.2-1.5,0.4-2.4c0.3-1.2,0.9-2.6,1.6-4.2
		c1.5-3.3,2.4-5.2,2.7-5.6c0.5-0.8,1.5-2.6,3.1-5.4c1.4-2.3,2.2-3.8,2.6-4.4c0.2-0.5,0.6-0.9,1.2-1.3c0.5-0.3,1-0.6,1.6-0.9
		c0.6-0.2,1.1-0.4,1.7-0.5c0.6-0.1,1.1-0.2,1.5-0.2c0.8,0,1.3,0.1,1.5,0.4c0.2,0.3,0.2,0.7,0.1,1.2c-0.1,0.4-0.4,1-0.8,1.8
		c-0.4,0.8-0.9,1.6-1.4,2.6c-0.5,1-1.3,2.2-2.2,3.8c-0.9,1.5-1.6,2.8-2.1,3.9c-0.5,1.1-1,2.2-1.6,3.2c-0.6,1.1-1,2-1.2,2.9
		c-0.2,0.9-0.3,1.5-0.3,2c0,0.5,0.4,0.8,1,0.8c0.7,0,1.5-0.2,2.5-0.7c1-0.5,2-1.1,3-1.7c1-0.7,2.1-1.4,3.1-2.1s1.9-1.3,2.7-1.9
		L206.8,94.4z M202.7,64.5c0.1-0.4,0.4-0.9,0.7-1.5s0.8-1.1,1.4-1.6c0.6-0.5,1.3-0.9,2.1-1.2c0.8-0.3,1.7-0.5,2.8-0.5
		c0.7,0,1.3,0.1,1.8,0.2c0.5,0.2,1,0.4,1.3,0.7c0.3,0.3,0.6,0.7,0.7,1.3c0.1,0.5,0.1,1.1-0.1,1.8c-0.2,0.7-0.5,1.3-0.9,1.9
		c-0.4,0.6-0.9,1.2-1.5,1.6c-0.6,0.5-1.3,0.9-2.1,1.2c-0.8,0.3-1.7,0.4-2.6,0.4c-1.7,0-2.8-0.4-3.4-1.2
		C202.4,66.9,202.3,65.8,202.7,64.5z"/>
	<path class="st0" d="M212,100.5c-1.8,0-3.2-0.3-4.4-1c-1.1-0.6-2-1.5-2.6-2.6c-0.6-1.1-0.9-2.3-1-3.8c0-1.4,0.1-2.9,0.6-4.5
		c0.3-1.1,0.9-2.4,1.7-4c0.8-1.5,1.6-2.9,2.4-4c0.8-1.2,1.6-2.2,2.6-3.3c1-1,2-2,3.1-2.8c1.1-0.8,2.2-1.4,3.5-1.9
		c1.2-0.5,2.4-0.7,3.7-0.7c1.2,0,2.2,0.2,3.1,0.5c0.9,0.3,1.6,0.8,2.1,1.4c0.5,0.6,0.9,1.3,1,2.1c0.2,0.8,0.1,1.7-0.2,2.6
		c-0.2,0.6-0.5,1.3-0.8,1.9s-0.9,1.4-1.7,2.2c-0.8,0.8-1.5,1.4-2.1,1.7c-0.6,0.3-1.2,0.5-1.8,0.5c-1,0-1.5-0.2-1.7-0.7
		c-0.2-0.7-0.2-1.4,0.1-2c0.1-0.3,0.5-1,1.1-2.1c0.1-0.2,0.2-0.5,0.3-1c0.1-0.5,0.2-0.8,0.2-1.1c0-0.3-0.2-0.5-0.5-0.5
		c-0.8,0-1.5,0.2-2.1,0.6c-0.7,0.4-1.3,0.9-1.8,1.5c-0.6,0.6-1.2,1.4-1.9,2.5c-0.7,1.1-1.2,2-1.6,2.8c-0.4,0.7-0.7,1.5-0.9,2.1
		c-0.2,0.7-0.4,1.2-0.5,1.7c-0.2,0.7-0.3,1.4-0.4,2.1c-0.1,0.7,0,1.4,0.2,2c0.2,0.6,0.5,1.1,1,1.5c0.5,0.4,1.2,0.6,2.1,0.6
		c0.9,0,2-0.3,3.3-0.8c1.3-0.6,2.6-1.3,3.9-2.1c1.4-0.9,2.7-1.8,4-2.8s2.4-2,3.4-2.9l1,3.3c-2,2-4.1,3.9-6.2,5.4
		c-0.9,0.7-1.9,1.4-2.9,2c-1,0.6-2,1.2-3.1,1.7c-1,0.5-2.1,0.9-3.2,1.2C214,100.3,213,100.5,212,100.5z"/>
	<path class="st0" d="M234.2,100.5c-1.8,0-3.2-0.3-4.4-1c-1.1-0.7-2-1.5-2.6-2.7s-0.9-2.4-0.9-3.9s0.2-3,0.7-4.6
		c0.3-1.1,0.9-2.3,1.7-3.8c0.8-1.5,1.6-2.7,2.3-3.9c0.7-1.1,1.6-2.2,2.5-3.2c0.9-1,1.9-1.9,3-2.7c1.1-0.8,2.2-1.4,3.4-1.9
		c1.2-0.5,2.5-0.7,3.8-0.7c1.1,0,2,0.2,2.8,0.5c0.8,0.3,1.5,0.8,2,1.4c0.5,0.6,0.8,1.4,0.9,2.2c0.1,0.9,0,1.9-0.3,2.9
		c-0.3,1.2-1.1,2.4-2.3,3.9c-1.2,1.4-2.4,2.7-3.8,3.7c-1.3,1-2.8,1.9-4.5,2.7c-1.6,0.8-3.4,1.4-5.2,1.9c0.1,0.5,0.3,0.9,0.5,1.3
		c0.2,0.3,0.4,0.6,0.6,0.8c0.2,0.2,0.5,0.3,0.8,0.4c0.3,0.1,0.6,0.1,1,0.1c1.1,0,2.4-0.2,3.8-0.7c1.4-0.4,2.8-1,4.2-1.7
		c1.4-0.7,2.7-1.4,4-2.2c1.3-0.8,2.4-1.5,3.4-2.2l2.6,3.7c-2.2,1.8-4.4,3.4-6.7,4.7c-1,0.6-2,1.2-3.1,1.7c-1.1,0.6-2.2,1.1-3.4,1.5
		c-1.2,0.4-2.3,0.8-3.5,1.1C236.5,100.3,235.3,100.5,234.2,100.5z M234.3,86.9c0.7,0,1.5-0.2,2.4-0.5c0.9-0.3,1.8-0.8,2.6-1.3
		c0.9-0.5,1.7-1.3,2.7-2.2c0.9-0.9,1.5-1.7,1.6-2.3c0.2-0.8,0.3-1.5,0.1-2.1c-0.2-0.5-0.5-0.8-0.9-0.8c-0.8,0-1.6,0.1-2.2,0.4
		c-0.7,0.3-1.3,0.7-1.8,1.2c-0.5,0.5-1,1-1.4,1.6c-0.4,0.6-0.9,1.4-1.5,2.2c-0.6,0.9-1,1.6-1.2,2.2C234.5,86,234.4,86.5,234.3,86.9z
		"/>
</g>
<g>
	<g>
		<path class="st0" d="M54.5,115.1c0.3-0.1,0.7-0.1,1.3-0.2c0.6,0,1.1-0.1,1.7-0.1c0.7,0,1.4,0.1,1.9,0.2c0.6,0.1,1.1,0.3,1.5,0.6
			c0.4,0.3,0.7,0.7,1,1.1c0.2,0.5,0.3,1,0.3,1.7c0,0.4-0.1,0.8-0.2,1.1c-0.1,0.3-0.3,0.6-0.5,0.9c-0.2,0.3-0.4,0.5-0.7,0.7
			c-0.3,0.2-0.5,0.3-0.8,0.4c0.3,0,0.7,0.1,1.1,0.3c0.4,0.2,0.7,0.4,1,0.7c0.3,0.3,0.5,0.6,0.7,1.1s0.3,1,0.3,1.6
			c0,0.8-0.1,1.4-0.4,1.9c-0.3,0.5-0.7,1-1.2,1.3c-0.5,0.3-1.1,0.6-1.7,0.7c-0.7,0.1-1.4,0.2-2.1,0.2c-0.5,0-1,0-1.6-0.1
			c-0.6,0-1.1-0.1-1.6-0.2V115.1z M57.8,120.9c0.8,0,1.5-0.2,1.9-0.6c0.4-0.4,0.7-1,0.7-1.7c0-0.7-0.2-1.3-0.7-1.7
			c-0.5-0.4-1.1-0.5-2-0.5c-0.2,0-0.5,0-0.7,0c-0.2,0-0.4,0-0.6,0.1v4.4H57.8z M56.4,127.5c0.2,0,0.4,0,0.7,0.1c0.3,0,0.5,0,0.8,0
			c0.4,0,0.9,0,1.3-0.1c0.4-0.1,0.7-0.2,1-0.4c0.3-0.2,0.5-0.4,0.7-0.8c0.2-0.3,0.3-0.7,0.3-1.2c0-0.5-0.1-0.9-0.2-1.2
			c-0.2-0.3-0.4-0.6-0.7-0.8c-0.3-0.2-0.6-0.3-1-0.4c-0.4-0.1-0.8-0.1-1.3-0.1h-1.6V127.5z"/>
		<path class="st0" d="M76,125.8h-5.1L70,129c-0.2,0-0.3,0-0.5,0.1c-0.2,0-0.3,0-0.5,0c-0.2,0-0.3,0-0.5,0c-0.2,0-0.3,0-0.5-0.1
			l4.4-14c0.2,0,0.3,0,0.5-0.1c0.2,0,0.4,0,0.6,0c0.2,0,0.4,0,0.5,0c0.2,0,0.4,0,0.5,0.1l4.4,14c-0.1,0-0.3,0-0.5,0.1
			c-0.2,0-0.4,0-0.5,0c-0.2,0-0.3,0-0.5,0c-0.2,0-0.3,0-0.5-0.1L76,125.8z M71.4,124.1h4.1l-2.1-7.1L71.4,124.1z"/>
		<path class="st0" d="M92,121.8c0.2,0,0.3,0,0.5-0.1s0.3,0,0.5,0c0.2,0,0.3,0,0.5,0s0.3,0,0.4,0.1v6.8c-0.3,0.1-0.5,0.2-0.9,0.3
			c-0.3,0.1-0.6,0.1-1,0.2c-0.3,0-0.7,0.1-1,0.1s-0.7,0-1,0c-1,0-1.9-0.2-2.7-0.5c-0.8-0.3-1.5-0.8-2-1.4c-0.5-0.6-1-1.4-1.3-2.2
			c-0.3-0.9-0.4-1.9-0.4-3c0-1.1,0.2-2.1,0.4-3s0.7-1.7,1.3-2.3s1.2-1.1,2-1.5c0.8-0.3,1.6-0.5,2.6-0.5c0.7,0,1.3,0,1.9,0.1
			s1,0.2,1.4,0.4c0,0.3-0.1,0.6-0.2,0.8s-0.2,0.5-0.3,0.8c-0.3-0.1-0.7-0.2-1.1-0.3s-0.9-0.1-1.5-0.1c-0.7,0-1.3,0.1-1.8,0.4
			c-0.5,0.2-1,0.6-1.4,1.1c-0.4,0.5-0.7,1.1-0.9,1.8c-0.2,0.7-0.3,1.5-0.3,2.4c0,0.9,0.1,1.7,0.3,2.4c0.2,0.7,0.5,1.2,0.9,1.7
			c0.4,0.4,0.9,0.8,1.4,1s1.1,0.3,1.8,0.3c0.4,0,0.7,0,1-0.1c0.3,0,0.6-0.1,0.8-0.2V121.8z"/>
		<path class="st0" d="M100.7,115.1h7.4c0,0.3,0.1,0.5,0.1,0.9c0,0.1,0,0.3,0,0.4c0,0.2,0,0.3,0,0.4h-5.5v4h4.4c0,0.1,0,0.3,0.1,0.4
			c0,0.1,0,0.3,0,0.4s0,0.3,0,0.4c0,0.2,0,0.3-0.1,0.4h-4.4v4.8h5.6c0,0.3,0.1,0.5,0.1,0.9c0,0.1,0,0.3,0,0.4c0,0.2,0,0.3,0,0.4
			h-7.5V115.1z"/>
		<path class="st0" d="M114.4,115.1c0.1,0,0.3,0,0.4-0.1c0.2,0,0.3,0,0.5,0c0.2,0,0.3,0,0.5,0c0.2,0,0.3,0,0.5,0.1v12.2h5.3
			c0,0.1,0,0.3,0,0.4c0,0.2,0,0.3,0,0.4c0,0.3,0,0.6-0.1,0.9h-7.2V115.1z"/>
		<path class="st0" d="M137.4,118.3c0,0.6,0.2,1,0.5,1.3s0.9,0.5,1.7,0.5h4.1l1.7-2.5h0.1v2.5h2.4c0,0.2,0.1,0.5,0.1,0.8
			c0,0.1,0,0.3,0,0.4c0,0.1,0,0.3-0.1,0.4h-2.4v2.9c0,0.8-0.1,1.5-0.4,2.1c-0.3,0.6-0.6,1.1-1.1,1.5c-0.5,0.4-1.1,0.7-1.7,0.9
			c-0.7,0.2-1.4,0.3-2.3,0.3c-0.7,0-1.3-0.1-1.9-0.2c-0.6-0.2-1.1-0.4-1.6-0.7c-0.5-0.3-0.8-0.8-1.1-1.3c-0.3-0.5-0.4-1.2-0.4-1.9
			c0-0.4,0.1-0.8,0.2-1.3s0.3-0.8,0.5-1.2s0.5-0.7,0.8-0.9c0.3-0.3,0.6-0.5,0.9-0.6c-0.5-0.2-1-0.6-1.4-1.1
			c-0.4-0.5-0.6-1.1-0.6-1.9c0-0.6,0.1-1.1,0.3-1.5s0.5-0.8,0.9-1.1s0.8-0.5,1.3-0.6c0.5-0.1,1-0.2,1.6-0.2c0.3,0,0.7,0,1.1,0.1
			c0.4,0.1,0.8,0.2,1.3,0.3c0,0.3,0,0.6-0.1,0.8c-0.1,0.2-0.2,0.5-0.3,0.7c-0.3-0.1-0.6-0.2-0.9-0.2c-0.3,0-0.6-0.1-0.9-0.1
			c-0.4,0-0.8,0.1-1,0.2c-0.3,0.1-0.5,0.3-0.7,0.4c-0.2,0.2-0.3,0.4-0.4,0.6C137.4,117.8,137.4,118,137.4,118.3z M140.2,127.5
			c0.7,0,1.3-0.1,1.8-0.3c0.5-0.2,0.8-0.5,1.1-0.8s0.4-0.7,0.5-1.1c0.1-0.4,0.1-0.9,0.1-1.3v-2.3H140c-0.4,0-0.9,0.1-1.2,0.2
			s-0.7,0.4-0.9,0.7c-0.2,0.3-0.4,0.6-0.6,1c-0.1,0.4-0.2,0.8-0.2,1.2c0,0.9,0.3,1.6,0.8,2.1C138.4,127.3,139.2,127.5,140.2,127.5z"
			/>
		<path class="st0" d="M161.4,126.9c0.4,0.2,0.8,0.3,1.3,0.4s1,0.2,1.6,0.2c1,0,1.8-0.2,2.3-0.7c0.5-0.4,0.8-1,0.8-1.8
			c0-0.4-0.1-0.7-0.2-0.9c-0.1-0.3-0.3-0.5-0.5-0.7c-0.2-0.2-0.5-0.4-0.8-0.5c-0.3-0.2-0.7-0.3-1.1-0.5l-1.1-0.4
			c-0.4-0.2-0.7-0.3-1-0.5c-0.3-0.2-0.6-0.4-0.8-0.7c-0.2-0.3-0.4-0.6-0.5-0.9c-0.1-0.4-0.2-0.8-0.2-1.3c0-1.2,0.4-2.1,1.2-2.8
			c0.8-0.7,1.9-1,3.3-1c0.6,0,1.2,0.1,1.7,0.2c0.5,0.1,1,0.2,1.4,0.4c-0.1,0.5-0.2,1.1-0.4,1.6c-0.3-0.1-0.7-0.2-1.2-0.4
			c-0.4-0.1-0.9-0.2-1.5-0.2c-0.8,0-1.4,0.2-1.8,0.5c-0.4,0.3-0.6,0.8-0.6,1.5c0,0.3,0.1,0.5,0.2,0.7c0.1,0.2,0.2,0.4,0.4,0.6
			s0.4,0.3,0.6,0.4c0.2,0.1,0.5,0.2,0.7,0.4l1,0.4c0.5,0.2,0.9,0.4,1.3,0.7c0.4,0.2,0.7,0.5,1,0.8c0.3,0.3,0.5,0.7,0.6,1.1
			c0.1,0.4,0.2,0.9,0.2,1.5c0,1.3-0.4,2.4-1.3,3.2c-0.9,0.8-2.1,1.2-3.7,1.2c-0.4,0-0.7,0-1,0s-0.6-0.1-0.9-0.1
			c-0.3-0.1-0.5-0.1-0.8-0.2c-0.2-0.1-0.5-0.2-0.8-0.3c0-0.3,0.1-0.6,0.2-0.9C161.2,127.5,161.3,127.2,161.4,126.9z"/>
		<path class="st0" d="M182.3,125.8h-5.1l-0.9,3.2c-0.2,0-0.3,0-0.5,0.1c-0.2,0-0.3,0-0.5,0c-0.2,0-0.3,0-0.5,0
			c-0.2,0-0.3,0-0.5-0.1l4.4-14c0.2,0,0.3,0,0.5-0.1c0.2,0,0.4,0,0.6,0c0.2,0,0.4,0,0.5,0c0.2,0,0.4,0,0.5,0.1l4.4,14
			c-0.1,0-0.3,0-0.5,0.1c-0.2,0-0.4,0-0.5,0c-0.2,0-0.3,0-0.5,0c-0.2,0-0.3,0-0.5-0.1L182.3,125.8z M177.7,124.1h4.1l-2.1-7.1
			L177.7,124.1z"/>
		<path class="st0" d="M190.9,115.1c0.1,0,0.3,0,0.4-0.1c0.2,0,0.3,0,0.5,0c0.2,0,0.3,0,0.5,0c0.2,0,0.3,0,0.5,0.1v12.2h5.3
			c0,0.1,0,0.3,0,0.4c0,0.2,0,0.3,0,0.4c0,0.3,0,0.6-0.1,0.9h-7.2V115.1z"/>
		<path class="st0" d="M210.5,125.8h-5.1l-0.9,3.2c-0.2,0-0.3,0-0.5,0.1c-0.2,0-0.3,0-0.5,0c-0.2,0-0.3,0-0.5,0
			c-0.2,0-0.3,0-0.5-0.1l4.4-14c0.2,0,0.3,0,0.5-0.1c0.2,0,0.4,0,0.6,0c0.2,0,0.4,0,0.5,0c0.2,0,0.4,0,0.5,0.1l4.4,14
			c-0.1,0-0.3,0-0.5,0.1c-0.2,0-0.4,0-0.5,0c-0.2,0-0.3,0-0.5,0c-0.2,0-0.3,0-0.5-0.1L210.5,125.8z M205.9,124.1h4.1L208,117
			L205.9,124.1z"/>
		<path class="st0" d="M219.2,115.1c0.4-0.1,0.9-0.1,1.5-0.1c0.6,0,1.2-0.1,1.8-0.1c2.4,0,4.1,0.6,5.3,1.9s1.7,3,1.7,5.4
			c0,2.4-0.6,4.2-1.8,5.4c-1.2,1.2-3,1.8-5.3,1.8c-0.6,0-1.2,0-1.7-0.1c-0.6,0-1.1-0.1-1.5-0.2V115.1z M221.1,127.4
			c0.2,0,0.4,0,0.6,0.1c0.3,0,0.5,0,0.8,0c0.7,0,1.4-0.1,2-0.3c0.6-0.2,1.1-0.5,1.6-0.9c0.4-0.4,0.8-1,1-1.7
			c0.2-0.7,0.4-1.6,0.4-2.7c0-1-0.1-1.8-0.4-2.5c-0.2-0.7-0.6-1.2-1-1.7c-0.4-0.4-0.9-0.7-1.5-0.9c-0.6-0.2-1.3-0.3-2-0.3
			c-0.2,0-0.5,0-0.8,0c-0.3,0-0.5,0-0.7,0.1V127.4z"/>
	</g>
	<g>
		<path class="st0" d="M116.3,225.3c0.2,0,0.4,0,0.6-0.1c0.2,0,0.5,0,0.8-0.1c0.3,0,0.5,0,0.8,0c0.3,0,0.5,0,0.8,0
			c0.6,0,1.3,0.1,1.8,0.2s1.1,0.4,1.5,0.7c0.4,0.3,0.8,0.8,1,1.3c0.3,0.5,0.4,1.2,0.4,2c0,0.9-0.1,1.6-0.4,2.1
			c-0.3,0.6-0.6,1-1.1,1.4c-0.5,0.3-1,0.6-1.5,0.7s-1.2,0.2-1.8,0.2c-0.2,0-0.4,0-0.6,0c-0.2,0-0.4,0-0.6,0v4.7
			c-0.3,0-0.6,0.1-0.9,0.1c-0.1,0-0.3,0-0.4,0c-0.2,0-0.3,0-0.4,0V225.3z M118.1,232c0.2,0,0.4,0,0.5,0.1c0.1,0,0.3,0,0.6,0
			c0.4,0,0.7,0,1.1-0.1s0.7-0.2,1-0.4c0.3-0.2,0.5-0.5,0.7-0.8c0.2-0.4,0.3-0.8,0.3-1.4c0-0.5-0.1-0.9-0.2-1.3
			c-0.1-0.3-0.3-0.6-0.6-0.8c-0.3-0.2-0.6-0.4-0.9-0.4c-0.4-0.1-0.8-0.1-1.2-0.1c-0.4,0-0.8,0-1.1,0.1V232z"/>
		<path class="st0" d="M135,235.4h-4.8l-0.9,3c-0.2,0-0.3,0-0.5,0.1c-0.2,0-0.3,0-0.5,0c-0.2,0-0.3,0-0.5,0c-0.2,0-0.3,0-0.4-0.1
			l4.1-13.1c0.2,0,0.3,0,0.5-0.1c0.2,0,0.4,0,0.5,0c0.2,0,0.3,0,0.5,0c0.2,0,0.3,0,0.5,0.1l4.1,13.1c-0.1,0-0.3,0-0.5,0.1
			c-0.2,0-0.3,0-0.5,0c-0.2,0-0.3,0-0.5,0c-0.2,0-0.3,0-0.4-0.1L135,235.4z M130.7,233.8h3.8l-1.9-6.7L130.7,233.8z"/>
		<path class="st0" d="M143.2,225.3c0.3,0,0.5,0,0.7-0.1c0.2,0,0.4,0,0.6-0.1c0.2,0,0.4,0,0.6,0c0.2,0,0.5,0,0.7,0
			c0.6,0,1.2,0.1,1.8,0.2c0.6,0.1,1.1,0.3,1.6,0.6c0.5,0.3,0.8,0.7,1.1,1.2c0.3,0.5,0.4,1.2,0.4,2c0,0.5-0.1,0.9-0.2,1.3
			c-0.2,0.4-0.3,0.7-0.6,1c-0.2,0.3-0.5,0.6-0.8,0.8s-0.6,0.4-0.9,0.6l-0.2,0.1l3.7,5.5c-0.3,0-0.7,0.1-1.1,0.1
			c-0.3,0-0.6,0-0.9-0.1l-4-6.1v-0.1l0.1,0c0.3-0.1,0.6-0.2,1-0.3s0.7-0.3,1-0.6c0.3-0.2,0.5-0.5,0.7-0.9c0.2-0.3,0.3-0.7,0.3-1.2
			c0-0.9-0.2-1.5-0.7-2c-0.5-0.4-1.2-0.6-2-0.6c-0.2,0-0.4,0-0.6,0s-0.4,0-0.6,0.1v11.7c-0.1,0-0.3,0-0.4,0c-0.2,0-0.3,0-0.4,0
			c-0.1,0-0.3,0-0.5,0c-0.2,0-0.3,0-0.5,0V225.3z"/>
		<path class="st0" d="M157.1,225.3c0.1,0,0.3,0,0.4-0.1c0.2,0,0.3,0,0.5,0c0.2,0,0.3,0,0.5,0c0.2,0,0.3,0,0.4,0.1v13.1
			c-0.1,0-0.3,0-0.4,0.1s-0.3,0-0.5,0c-0.2,0-0.3,0-0.5,0c-0.2,0-0.3,0-0.4-0.1V225.3z"/>
		<path class="st0" d="M165.2,236.4c0.4,0.1,0.8,0.3,1.2,0.4c0.4,0.1,0.9,0.2,1.5,0.2c1,0,1.7-0.2,2.1-0.6c0.5-0.4,0.7-1,0.7-1.6
			c0-0.3,0-0.6-0.1-0.9c-0.1-0.2-0.2-0.5-0.4-0.6c-0.2-0.2-0.4-0.3-0.7-0.5c-0.3-0.1-0.6-0.3-1-0.5l-1-0.4c-0.3-0.1-0.6-0.3-0.9-0.5
			c-0.3-0.2-0.5-0.4-0.7-0.6c-0.2-0.3-0.4-0.5-0.5-0.9c-0.1-0.3-0.2-0.7-0.2-1.2c0-1.1,0.4-2,1.1-2.6s1.7-0.9,3-0.9
			c0.6,0,1.1,0,1.6,0.1c0.5,0.1,0.9,0.2,1.3,0.4c-0.1,0.5-0.2,1-0.4,1.5c-0.3-0.1-0.7-0.2-1.1-0.3c-0.4-0.1-0.9-0.1-1.4-0.1
			c-0.7,0-1.3,0.2-1.7,0.5s-0.6,0.8-0.6,1.4c0,0.3,0,0.5,0.1,0.7c0.1,0.2,0.2,0.4,0.4,0.5c0.2,0.2,0.4,0.3,0.6,0.4
			c0.2,0.1,0.5,0.2,0.7,0.3l1,0.4c0.5,0.2,0.9,0.4,1.2,0.6c0.4,0.2,0.7,0.5,0.9,0.7c0.3,0.3,0.5,0.6,0.6,1s0.2,0.8,0.2,1.4
			c0,1.3-0.4,2.2-1.2,3c-0.8,0.7-2,1.1-3.5,1.1c-0.4,0-0.7,0-1,0s-0.6-0.1-0.8-0.1c-0.3,0-0.5-0.1-0.7-0.2c-0.2-0.1-0.5-0.2-0.7-0.2
			c0-0.3,0.1-0.5,0.2-0.8C165,237,165.1,236.7,165.2,236.4z"/>
	</g>
	<g>
		<g>
			<path class="st0" d="M257,149.6H142.5c-0.8,0-1.4-0.6-1.4-1.4s0.6-1.4,1.4-1.4H257c0.8,0,1.4,0.6,1.4,1.4S257.8,149.6,257,149.6z
				"/>
			<path class="st0" d="M257,160.7h-90.2c-0.8,0-1.4-0.6-1.4-1.4s0.6-1.4,1.4-1.4H257c0.8,0,1.4,0.6,1.4,1.4S257.8,160.7,257,160.7z
				"/>
			<path class="st0" d="M257,170.2h-85.6c-0.8,0-1.4-0.6-1.4-1.4s0.6-1.4,1.4-1.4H257c0.8,0,1.4,0.6,1.4,1.4S257.8,170.2,257,170.2z
				"/>
			<path class="st0" d="M257,179.8h-84.1c-0.8,0-1.4-0.6-1.4-1.4s0.6-1.4,1.4-1.4H257c0.8,0,1.4,0.6,1.4,1.4S257.8,179.8,257,179.8z
				"/>
			<path class="st0" d="M257,189.4h-85.6c-0.8,0-1.4-0.6-1.4-1.4s0.6-1.4,1.4-1.4H257c0.8,0,1.4,0.6,1.4,1.4S257.8,189.4,257,189.4z
				"/>
			<path class="st0" d="M257,198.9h-91.7c-0.8,0-1.4-0.6-1.4-1.4s0.6-1.4,1.4-1.4H257c0.8,0,1.4,0.6,1.4,1.4S257.8,198.9,257,198.9z
				"/>
			<path class="st0" d="M257,209H142.5c-0.8,0-1.4-0.6-1.4-1.4s0.6-1.4,1.4-1.4H257c0.8,0,1.4,0.6,1.4,1.4S257.8,209,257,209z"/>
		</g>
		<g>
			<path class="st0" d="M122.5,149.6H27c-0.8,0-1.4-0.6-1.4-1.4s0.6-1.4,1.4-1.4h95.5c0.8,0,1.4,0.6,1.4,1.4
				S123.3,149.6,122.5,149.6z"/>
			<path class="st0" d="M111.2,160.7H27c-0.8,0-1.4-0.6-1.4-1.4s0.6-1.4,1.4-1.4h84.2c0.8,0,1.4,0.6,1.4,1.4S112,160.7,111.2,160.7z
				"/>
			<path class="st0" d="M107.6,170.2H27c-0.8,0-1.4-0.6-1.4-1.4s0.6-1.4,1.4-1.4h80.6c0.8,0,1.4,0.6,1.4,1.4
				S108.4,170.2,107.6,170.2z"/>
			<path class="st0" d="M111.1,179.8H27c-0.8,0-1.4-0.6-1.4-1.4s0.6-1.4,1.4-1.4h84.1c0.8,0,1.4,0.6,1.4,1.4
				S111.9,179.8,111.1,179.8z"/>
			<path class="st0" d="M112.6,189.4H27c-0.8,0-1.4-0.6-1.4-1.4s0.6-1.4,1.4-1.4h85.6c0.8,0,1.4,0.6,1.4,1.4
				S113.4,189.4,112.6,189.4z"/>
			<path class="st0" d="M118.7,198.9H27c-0.8,0-1.4-0.6-1.4-1.4s0.6-1.4,1.4-1.4h91.7c0.8,0,1.4,0.6,1.4,1.4
				S119.5,198.9,118.7,198.9z"/>
			<path class="st0" d="M141.5,209H27c-0.8,0-1.4-0.6-1.4-1.4s0.6-1.4,1.4-1.4h114.5c0.8,0,1.4,0.6,1.4,1.4S142.3,209,141.5,209z"/>
		</g>
	</g>
</g>
<path class="st0" d="M143.8,138.2c-21.2,0-38.5,17.2-38.5,38.5c0,21.2,17.2,38.5,38.5,38.5s38.5-17.2,38.5-38.5
	C182.2,155.4,165,138.2,143.8,138.2z M165.3,177c0.5,0,0.9,0.4,0.9,0.9s-0.4,0.9-0.9,0.9s-0.9-0.4-0.9-0.9S164.8,177,165.3,177z
	 M150.8,156c0.5,0,0.9,0.4,0.9,0.9s-0.4,0.9-0.9,0.9c-0.5,0-0.9-0.4-0.9-0.9S150.3,156,150.8,156z M142.8,151c0.6,0,1.2,0.5,1.2,1.2
	s-0.5,1.2-1.2,1.2s-1.2-0.5-1.2-1.2S142.2,151,142.8,151z M120.4,173.8c0-0.7,0.5-1.2,1.2-1.2s1.2,0.5,1.2,1.2
	c0,0.7-0.5,1.2-1.2,1.2S120.4,174.5,120.4,173.8z M123.2,200c-0.5,0-0.9-0.4-0.9-0.9s0.4-0.9,0.9-0.9s0.9,0.4,0.9,0.9
	S123.7,200,123.2,200z M112.6,173.8c-0.1,0.7-0.6,1.2-1.3,1.2c0,0-0.1,0-0.1,0c-0.7-0.1-1.2-0.7-1.2-1.4c0.8-10.6,6.8-20.1,16-25.3
	c0.6-0.4,1.4-0.1,1.8,0.5c0.4,0.6,0.1,1.4-0.5,1.8C118.8,155.4,113.3,164.1,112.6,173.8z M128.5,159.6c-0.5,0-0.9-0.4-0.9-0.9
	s0.4-0.9,0.9-0.9c0.5,0,0.9,0.4,0.9,0.9S129,159.6,128.5,159.6z M132,199.3c-0.6,0-1.1-0.5-1.1-1.1s0.5-1.1,1.1-1.1s1.1,0.5,1.1,1.1
	S132.7,199.3,132,199.3z M138.7,205.8c-0.5,0-0.9-0.4-0.9-0.9s0.4-0.9,0.9-0.9c0.5,0,0.9,0.4,0.9,0.9S139.2,205.8,138.7,205.8z
	 M143.2,198.2c-0.6,0-1.1-0.5-1.1-1.1c0-0.6,0.5-1.1,1.1-1.1s1.1,0.5,1.1,1.1C144.3,197.7,143.8,198.2,143.2,198.2z M149.9,201.5
	c-0.7,0-1.2-0.5-1.2-1.2s0.5-1.2,1.2-1.2c0.7,0,1.2,0.5,1.2,1.2S150.6,201.5,149.9,201.5z M143.8,189.6c-7.3,0-13.2-5.9-13.2-13.2
	c0-7.3,5.9-13.2,13.2-13.2c7.3,0,13.2,5.9,13.2,13.2C156.9,183.7,151,189.6,143.8,189.6z M161.8,198c-0.5,0-0.9-0.4-0.9-0.9
	s0.4-0.9,0.9-0.9s0.9,0.4,0.9,0.9S162.4,198,161.8,198z M161.8,156c-0.5,0-0.9-0.4-0.9-0.9s0.4-0.9,0.9-0.9s0.9,0.4,0.9,0.9
	S162.4,156,161.8,156z M165.3,189.6c-0.6,0-1.1-0.5-1.1-1.1c0-0.6,0.5-1.1,1.1-1.1c0.6,0,1.1,0.5,1.1,1.1
	C166.3,189.2,165.9,189.6,165.3,189.6z M166.2,168c-0.7,0-1.2-0.5-1.2-1.2c0-0.7,0.5-1.2,1.2-1.2s1.2,0.5,1.2,1.2
	C167.4,167.5,166.9,168,166.2,168z"/>
</svg>
